<?xml version="1.0" encoding="UTF-8" standalone="no"?>
<svg
   width="12"
   height="15.999997"
   fill="currentColor"
   class="bi bi-geo-alt-fill"
   viewBox="0 0 12 15.999997"
   version="1.1"
   id="svg1"
   sodipodi:docname="geo-alt-fill.svg"
   xml:space="preserve"
   xmlns:inkscape="http://www.inkscape.org/namespaces/inkscape"
   xmlns:sodipodi="http://sodipodi.sourceforge.net/DTD/sodipodi-0.dtd"
   xmlns="http://www.w3.org/2000/svg"
   xmlns:svg="http://www.w3.org/2000/svg"><defs
     id="defs1" /><sodipodi:namedview
     id="namedview1"
     pagecolor="#505050"
     bordercolor="#eeeeee"
     borderopacity="1"
     inkscape:showpageshadow="0"
     inkscape:pageopacity="0"
     inkscape:pagecheckerboard="0"
     inkscape:deskcolor="#505050"
     showgrid="false"><inkscape:page
       x="0"
       y="0"
       width="12"
       height="15.999997"
       id="page2"
       margin="0"
       bleed="0" /></sodipodi:namedview><path
     d="m 6,15.999997 c 0,0 6,-5.686 6,-9.9999996 C 12,2.6862867 9.313708,0 6,0 2.6862916,0 0,2.6862867 0,5.9999974 0,10.313997 6,15.999997 6,15.999997"
     id="path1"
     sodipodi:nodetypes="csssc"
     style="fill:#1a1a1a" /><g
     style="fill:#c83737"
     id="g1"
     transform="matrix(0.5,0,0,0.5,2,1.6227732)"><path
       fill-rule="evenodd"
       d="m 8,0 c 1.07,0 2.041,0.42 2.759,1.104 l 0.14,0.14 0.062,0.08 a 0.5,0.5 0 0 1 -0.71,0.675 L 10.175,1.933 9.959,1.728 A 3,3 0 0 0 5,4 v 2 h 6.5 A 2.5,2.5 0 0 1 14,8.5 v 5 A 2.5,2.5 0 0 1 11.5,16 h -7 A 2.5,2.5 0 0 1 2,13.5 v -5 A 2.5,2.5 0 0 1 4,6.05 V 4 A 4,4 0 0 1 8,0"
       id="path1-9"
       style="fill:#c83737" /></g></svg>
