<?xml version="1.0" encoding="UTF-8" standalone="no"?>
<!-- Generator: Adobe Illustrator 15.0.0, SVG Export Plug-In . SVG Version: 6.00 Build 0)  -->

<svg
   version="1.1"
   id="Ebene_1"
   x="0px"
   y="0px"
   width="270"
   height="270"
   viewBox="0 -45.75 270 270"
   enable-background="new 0 -45.75 270 270"
   xml:space="preserve"
   sodipodi:docname="logo.svg"
   inkscape:export-filename="rumsw.svg"
   inkscape:export-xdpi="96"
   inkscape:export-ydpi="96"
   xmlns:inkscape="http://www.inkscape.org/namespaces/inkscape"
   xmlns:sodipodi="http://sodipodi.sourceforge.net/DTD/sodipodi-0.dtd"
   xmlns="http://www.w3.org/2000/svg"
   xmlns:svg="http://www.w3.org/2000/svg"><defs
   id="defs6" /><sodipodi:namedview
   id="namedview6"
   pagecolor="#505050"
   bordercolor="#eeeeee"
   borderopacity="1"
   inkscape:showpageshadow="0"
   inkscape:pageopacity="0"
   inkscape:pagecheckerboard="0"
   inkscape:deskcolor="#505050"><inkscape:page
     x="0"
     y="0"
     width="270"
     height="270"
     id="page2"
     margin="0"
     bleed="0" /></sodipodi:namedview>
<polygon
   fill="#662d91"
   points="135,103.402 45,73.403 45,7.403 135,37.403 "
   id="polygon1"
   transform="rotate(180,135,89.25)"
   style="fill:#c5c5c5;fill-opacity:1" /><polygon
   fill="#ff00ff"
   points="135,103.402 225,73.403 225,7.403 135,37.403 "
   id="polygon2"
   transform="rotate(180,135,89.25)"
   style="fill:#c5c5c5;fill-opacity:1" />
<polygon
   fill="#662d91"
   points="135,224.25 0,179.25 0,81.75 135,126.75 "
   id="polygon3"
   transform="rotate(180,135,89.25)"
   style="fill:#c5c5c5;fill-opacity:1" /><polygon
   fill="#ff00ff"
   points="135,224.25 270,179.25 270,81.75 135,126.75 "
   id="polygon4"
   transform="rotate(180,135,89.25)"
   style="fill:#c5c5c5;fill-opacity:1" />
<polygon
   fill="#662d91"
   points="135,11.25 81.562,-6.562 81.562,-45.75 135,-27.938 "
   id="polygon5"
   transform="rotate(180,135,89.25)"
   style="fill:#c5c5c5;fill-opacity:1" /><polygon
   fill="#ff00ff"
   points="135,11.25 188.438,-6.562 188.438,-45.75 135,-27.938 "
   id="polygon6"
   transform="rotate(180,135,89.25)"
   style="fill:#c5c5c5;fill-opacity:1" />
</svg>
